<?xml version="1.0" encoding="UTF-8"?>
<svg width="13px" height="16px" viewBox="0 0 13 16" version="1.1" xmlns="http://www.w3.org/2000/svg" xmlns:xlink="http://www.w3.org/1999/xlink">
    <!-- Generator: sketchtool 41.2 (35397) - http://www.bohemiancoding.com/sketch -->
    <title>21AF8D97-D125-412C-B70E-B6202BE4D48B</title>
    <desc>Created with sketchtool.</desc>
    <defs></defs>
    <g id="Main" stroke="none" stroke-width="1" fill="none" fill-rule="evenodd">
        <g id="CollectionDetail" transform="translate(-1044.000000, -220.000000)" fill="#0082D5">
            <path d="M1047.73336,219.999893 L1047.73336,223.199915 L1044,223.199915 L1044,224.266588 L1046.13281,224.266588 L1046.13281,236 L1047.20002,236 L1054.66674,236 L1054.66674,234.933326 L1054.66674,224.266588 L1056.80009,224.266588 L1056.80009,223.199915 L1053.06673,223.199915 L1053.06673,219.999893 L1047.73336,219.999893 Z M1048.80003,223.200448 L1052.00005,223.200448 L1052.00005,221.066567 L1048.80003,221.066567 L1048.80003,223.200448 Z M1047.20002,234.933326 L1053.60006,234.933326 L1053.60006,224.266588 L1047.20002,224.266588 L1047.20002,234.933326 Z M1051.46672,233.333316 L1052.53339,233.333316 L1052.53339,225.866599 L1051.46672,225.866599 L1051.46672,233.333316 Z M1048.2667,233.333316 L1049.33337,233.333316 L1049.33337,225.866599 L1048.2667,225.866599 L1048.2667,233.333316 Z" id="Page-1"></path>
        </g>
    </g>
</svg>