<?xml version="1.0" encoding="UTF-8"?>
<svg width="56px" height="32px" viewBox="0 0 56 32" version="1.1" xmlns="http://www.w3.org/2000/svg" xmlns:xlink="http://www.w3.org/1999/xlink">
    <!-- Generator: sketchtool 41.2 (35397) - http://www.bohemiancoding.com/sketch -->
    <title>35615286-AE28-41A7-87A7-722B3B625336</title>
    <desc>Created with sketchtool.</desc>
    <defs></defs>
    <g id="Main" stroke="none" stroke-width="1" fill="none" fill-rule="evenodd">
        <g id="MyCart#4" transform="translate(-420.000000, -855.000000)" fill="#EA9215">
            <path d="M473.019,878.926 L469.843,878.926 C469.167,876.591 467.035,874.868 464.485,874.868 C461.936,874.868 459.803,876.591 459.127,878.926 L456.018,878.926 L456.018,857.948 L468.685,857.953 L473.019,868.9 L473.019,878.926 Z M464.485,884.071 C462.499,884.071 460.884,882.455 460.884,880.47 C460.884,878.484 462.499,876.868 464.485,876.868 C466.471,876.868 468.086,878.484 468.086,880.47 C468.086,882.455 466.471,884.071 464.485,884.071 L464.485,884.071 Z M454.018,878.926 L436.656,878.926 C435.98,876.591 433.847,874.868 431.297,874.868 C428.748,874.868 426.616,876.591 425.94,878.926 L422,878.926 L422,873.993 L454.018,873.993 L454.018,878.926 Z M431.297,884.071 C429.312,884.071 427.697,882.455 427.697,880.47 C427.697,878.484 429.312,876.868 431.297,876.868 C433.284,876.868 434.899,878.484 434.899,880.47 C434.899,882.455 433.284,884.071 431.297,884.071 L431.297,884.071 Z M474.919,868.655 C474.896,868.493 474.865,868.336 474.817,868.183 L474.749,867.876 L470.687,857.458 L470.653,857.432 C470.408,856.602 469.649,855.993 468.74,855.993 C468.734,855.993 468.726,855.996 468.72,855.997 L468.662,855.953 L456.018,855.948 L454.018,855.993 L454.005,871.993 L421,871.993 C420.448,871.993 420,872.441 420,872.993 L420,879.926 C420,880.479 420.448,880.926 421,880.926 L425.743,880.926 C425.979,883.798 428.366,886.071 431.297,886.071 C434.23,886.071 436.616,883.798 436.853,880.926 L458.93,880.926 C459.166,883.798 461.553,886.071 464.485,886.071 C467.417,886.071 469.803,883.798 470.04,880.926 L474.019,880.926 C474.572,880.926 475.019,880.479 475.019,879.926 L475.019,869.112 L474.919,868.655 Z M460.005,865.987 L460.005,862.018 L466.193,862.018 L467.724,865.987 L460.005,865.987 Z M458,860.046 L458,868.035 L470.312,868.035 L467.543,860.046 L458,860.046 Z M437.019,869.003 L450.02,869.003 L450.02,857.005 L437.019,857.005 L437.019,869.003 Z M436.002,870.941 L450.996,870.941 C451.548,870.941 451.996,870.493 451.996,869.941 L451.996,855.972 C451.959,855.256 451,855 451,855 L435.905,855.003 C435.905,855.003 435.039,855.24 435.002,855.972 L435.002,869.941 C435.002,870.493 435.45,870.941 436.002,870.941 L436.002,870.941 Z M424.009,869.003 L432.02,869.003 L432.02,864.041 L424.009,864.041 L424.009,869.003 Z M423.002,870.941 L432.996,870.941 C433.548,870.941 433.996,870.493 433.996,869.941 L433.996,862.947 C433.923,862.088 433.037,862.012 433.037,862.012 L423.012,862.014 C423.012,862.014 422.074,862.145 422.002,862.947 L422.002,869.941 C422.002,870.493 422.45,870.941 423.002,870.941 L423.002,870.941 Z" id="Delivery"></path>
        </g>
    </g>
</svg>